<svg xmlns="http://www.w3.org/2000/svg" width="34" height="33" viewBox="0 0 34 33"><defs><filter id="a" width="200%" height="200%" x="-50%" y="-50%"><feMorphology in="SourceGraphic" operator="dilate" result="SvgjsFeMorphology1010Out"/><feOffset dy="1" in="SvgjsFeMorphology1010Out" result="SvgjsFeOffset1011Out"/><feGaussianBlur in="SvgjsFeOffset1011Out" result="SvgjsFeGaussianBlur1012Out" stdDeviation=".5"/><feComposite in="SvgjsFeGaussianBlur1012Out" in2="SourceAlpha" operator="out" result="SvgjsFeComposite1013Out"/></filter></defs><path fill-opacity=".25" d="M663.8 3589.76a15.36 15.36 0 0 1-15.34-15.37 15.36 15.36 0 1 1 15.35 15.37zm.17-18.02c0-3.47-3.78-3.19-3.78-3.19h-5.6l.01 12.32 5.23-.03s4.49.34 4.53-3.69c0-2.35-1.9-2.92-1.9-2.92s1.5-.54 1.5-2.49zm8.33-2.52h-4.79v1.37h4.8zm-2.45 2.1c-4.58 0-4.36 4.82-4.36 4.82s-.25 4.74 4.45 4.74c3.63 0 4.15-2.99 4.15-2.99h-2.33s-.37 1.05-1.76 1.03c-2.27 0-2.2-2.19-2.2-2.19l6.4-.03s.66-5.38-4.35-5.38zm-.01 1.97c1.97 0 2.01 1.87 2.01 1.87l-4 .03s.15-1.9 1.99-1.9zm-10.12 5.41l-2.6-.01-.01-3.28 2.65.01s2-.14 2 1.53c0 1.99-2.04 1.75-2.04 1.75zm1.8-6.69c0-1.59-2.13-1.31-2.13-1.31l-2.28-.01v2.72l2.63-.01s1.78.21 1.78-1.39z" filter="url(#a)" transform="translate(-647 -3559)"/><path fill="#fff" d="M16.8 30.76A15.36 15.36 0 0 1 1.47 15.39 15.36 15.36 0 1 1 16.8 30.76zm.17-18.02c0-3.47-3.78-3.19-3.78-3.19H7.6l.01 12.32 5.23-.03s4.49.34 4.53-3.69c0-2.35-1.9-2.92-1.9-2.92s1.5-.54 1.5-2.49zm8.33-2.52h-4.79v1.37h4.8zm-2.45 2.1c-4.58 0-4.36 4.82-4.36 4.82s-.25 4.74 4.45 4.74c3.63 0 4.15-2.99 4.15-2.99h-2.33s-.37 1.05-1.76 1.03c-2.27 0-2.2-2.19-2.2-2.19l6.4-.03s.66-5.38-4.35-5.38zm-.01 1.97c1.97 0 2.01 1.87 2.01 1.87l-4 .03s.15-1.9 1.99-1.9zM12.72 19.7l-2.6-.01-.01-3.28 2.65.01s2-.14 2 1.53c0 1.99-2.04 1.75-2.04 1.75zm1.8-6.69c0-1.59-2.14-1.31-2.14-1.31l-2.27-.01v2.72l2.63-.01s1.78.21 1.78-1.39z"/></svg>