<svg xmlns="http://www.w3.org/2000/svg" width="33" height="34" viewBox="0 0 33 34"><defs><filter id="a" width="200%" height="200%" x="-50%" y="-50%"><feMorphology in="SourceGraphic" operator="dilate" result="SvgjsFeMorphology1019Out"/><feOffset dy="1" in="SvgjsFeMorphology1019Out" result="SvgjsFeOffset1020Out"/><feGaussianBlur in="SvgjsFeOffset1020Out" result="SvgjsFeGaussianBlur1021Out" stdDeviation=".5"/><feComposite in="SvgjsFeGaussianBlur1021Out" in2="SourceAlpha" operator="out" result="SvgjsFeComposite1022Out"/></filter></defs><path fill-opacity=".25" d="M702.55 3586.72c-6.6 0-11.95-5.37-11.95-12 0-6.62 5.35-11.99 11.95-11.99s11.95 5.37 11.95 11.99c0 6.63-5.35 12-11.95 12zm9.78-10.74c-3.3-.53-6.28-.04-6.28-.04s1.3 3.42 1.92 7.05c0 0 3.72-2.06 4.36-7.01zm-6.25 7.98s-.85-5.01-1.96-7.59c-4.93 1.38-7.62 6.16-7.63 6.16 4.76 3.61 9.6 1.43 9.6 1.43zm-11.04-2.82c3.73-5.64 8.4-6.5 8.4-6.5l-.8-1.76s-3.21 1.24-9.94 1.45c0 .02-.33 3.71 2.34 6.81zm-2.13-8.5c5.26-.14 8.91-1.33 8.91-1.33s-1.27-2.46-3.72-5.42c-4.48 2.32-5.2 6.75-5.2 6.75zm7.14-7.48s2.4 2.49 3.72 5.47c0 0 2.98-1.12 5.22-3.39-4.15-3.61-8.94-2.08-8.94-2.08zm10.13 3.3s-2.05 2.37-5.63 3.75c.3.64.58 1.31.85 2 3.07-.59 6.99-.03 6.99-.02-.18-3.55-2.2-5.73-2.2-5.73zm-22.89 6.18a15.36 15.36 0 1 0 30.7 0c0-8.49-6.87-15.38-15.35-15.38a15.37 15.37 0 0 0-15.35 15.38z" filter="url(#a)" transform="translate(-686 -3559)"/><path fill="#fff" d="M16.55 27.72c-6.6 0-11.95-5.37-11.95-12C4.6 9.1 9.95 3.73 16.55 3.73S28.5 9.1 28.5 15.72c0 6.63-5.35 12-11.95 12zm9.78-10.74c-3.3-.53-6.28-.04-6.28-.04s1.3 3.42 1.92 7.05c0 0 3.72-2.06 4.36-7.01zm-6.25 7.98s-.85-5.01-1.96-7.59c-4.93 1.38-7.62 6.16-7.63 6.16 4.76 3.61 9.6 1.43 9.6 1.43zM9.04 22.14c3.73-5.64 8.4-6.5 8.4-6.5l-.8-1.76s-3.21 1.24-9.94 1.45c0 .02-.33 3.71 2.34 6.81zm-2.14-8.5c5.27-.14 8.92-1.33 8.92-1.33s-1.27-2.46-3.72-5.42c-4.48 2.32-5.2 6.75-5.2 6.75zm7.15-7.48s2.4 2.49 3.72 5.47c0 0 2.98-1.12 5.22-3.39-4.15-3.61-8.94-2.08-8.94-2.08zm10.13 3.3s-2.05 2.37-5.63 3.75c.3.64.58 1.31.85 2 3.07-.59 6.99-.03 6.99-.02-.18-3.55-2.2-5.73-2.2-5.73zM1.3 15.64a15.36 15.36 0 1 0 30.7 0C32 7.15 25.12.26 16.64.26A15.37 15.37 0 0 0 1.3 15.64z"/></svg>